<svg width="300" height="300" viewBox="0 0 300 300" fill="none" xmlns="http://www.w3.org/2000/svg">
<path fill-rule="evenodd" clip-rule="evenodd" d="M162.566 13.7926C155.823 6.39163 144.177 6.39163 137.434 13.7927L126.282 26.0327C121.809 30.9424 114.886 32.7973 108.557 30.782L92.7792 25.7578C83.239 22.7198 73.1526 28.5432 71.0135 38.3242L67.4757 54.5004C66.0566 60.9888 60.9888 66.0567 54.5003 67.4757L38.3242 71.0135C28.5432 73.1526 22.7198 83.239 25.7577 92.7792L30.782 108.557C32.7973 114.886 30.9424 121.809 26.0327 126.282L13.7926 137.434C6.39161 144.177 6.39161 155.823 13.7926 162.566L26.0327 173.718C30.9424 178.191 32.7973 185.114 30.782 191.443L25.7577 207.221C22.7198 216.761 28.5432 226.847 38.3242 228.987L54.5003 232.524C60.9888 233.943 66.0566 239.011 67.4757 245.5L71.0135 261.676C73.1526 271.457 83.239 277.28 92.7792 274.242L108.557 269.218C114.886 267.203 121.809 269.058 126.282 273.967L137.434 286.207C144.177 293.608 155.823 293.608 162.566 286.207L173.718 273.967C178.191 269.058 185.114 267.203 191.443 269.218L207.221 274.242C216.761 277.28 226.847 271.457 228.987 261.676L232.524 245.5C233.943 239.011 239.011 233.943 245.5 232.524L261.676 228.987C271.457 226.847 277.28 216.761 274.242 207.221L269.218 191.443C267.203 185.114 269.058 178.191 273.967 173.718L286.207 162.566C293.608 155.823 293.608 144.177 286.207 137.434L273.967 126.282C269.058 121.809 267.203 114.886 269.218 108.557L274.242 92.7792C277.28 83.239 271.457 73.1526 261.676 71.0135L245.5 67.4757C239.011 66.0567 233.943 60.9888 232.524 54.5004L228.987 38.3242C226.847 28.5432 216.761 22.7198 207.221 25.7578L191.443 30.782C185.114 32.7973 178.191 30.9424 173.718 26.0327L162.566 13.7926ZM157.5 51C157.5 46.8579 154.142 43.5 150 43.5C145.858 43.5 142.5 46.8579 142.5 51V144.448C142.5 150.804 144.308 157.028 147.712 162.394L173.167 202.518C175.386 206.015 180.02 207.052 183.518 204.833C187.015 202.614 188.052 197.98 185.833 194.482L160.378 154.359C158.498 151.395 157.5 147.958 157.5 144.448V51Z" fill="white"/>
</svg>
